<svg id="visual" viewBox="0 0 900 600" width="900" height="600" xmlns="http://www.w3.org/2000/svg" xmlns:xlink="http://www.w3.org/1999/xlink" version="1.1"><g><g transform="translate(212 77)"><path d="M0 -60L51.9 -30L51.9 30L0 60L-51.9 30L-51.9 -30Z" fill="none" stroke="#262626" stroke-width="4"></path></g><g transform="translate(831 125)"><path d="M0 -58L50.2 -29L50.2 29L0 58L-50.2 29L-50.2 -29Z" fill="none" stroke="#262626" stroke-width="4"></path></g><g transform="translate(746 468)"><path d="M0 -26L22.5 -13L22.5 13L0 26L-22.5 13L-22.5 -13Z" fill="none" stroke="#262626" stroke-width="4"></path></g><g transform="translate(450 281)"><path d="M0 -25L21.7 -12.5L21.7 12.5L0 25L-21.7 12.5L-21.7 -12.5Z" stroke="#262626" fill="none" stroke-width="4"></path></g><g transform="translate(622 410)"><path d="M0 -32L27.7 -16L27.7 16L0 32L-27.7 16L-27.7 -16Z" stroke="#262626" fill="none" stroke-width="4"></path></g><g transform="translate(563 174)"><path d="M0 -30L26 -15L26 15L0 30L-26 15L-26 -15Z" stroke="#262626" fill="none" stroke-width="4"></path></g><g transform="translate(271 540)"><path d="M0 -41L35.5 -20.5L35.5 20.5L0 41L-35.5 20.5L-35.5 -20.5Z" stroke="#262626" fill="none" stroke-width="4"></path></g><g transform="translate(98 483)"><path d="M0 -42L36.4 -21L36.4 21L0 42L-36.4 21L-36.4 -21Z" stroke="#262626" fill="none" stroke-width="4"></path></g><g transform="translate(318 359)"><path d="M0 -50L43.3 -25L43.3 25L0 50L-43.3 25L-43.3 -25Z" stroke="#262626" fill="none" stroke-width="4"></path></g><g transform="translate(721 284)"><path d="M0 -44L38.1 -22L38.1 22L0 44L-38.1 22L-38.1 -22Z" stroke="#262626" fill="none" stroke-width="4"></path></g></g></svg>